<svg width="939" height="931" viewBox="0 0 939 931" fill="none" xmlns="http://www.w3.org/2000/svg">
<path d="M202.184 233.784C215.162 226.655 228.063 219.412 242.002 214.533C264.965 206.495 285.732 208.771 303.662 225.21C315.406 235.977 339.117 258.343 342.611 273.878C348.565 300.363 339.112 318.772 336.486 345.789C334.831 362.804 325.425 376.62 312.316 388.029C301.355 397.567 291.687 405.039 277.154 405.324C240.372 406.06 222.469 396.264 189.066 380.845C146.415 361.155 143.946 297.532 153.138 283.126C162.486 268.459 185.092 243.172 202.184 233.784Z" fill="#F3ACC8"/>
<path d="M302.987 419.018C332.292 421.918 356.743 442.427 362.506 463.944C367.383 482.155 350.646 512.321 320.485 559.721C290.324 607.121 348.085 654.776 287.157 681.575C226.229 708.374 165.387 676.891 172.345 614.538C179.304 552.185 225.942 411.477 302.987 419.018Z" fill="#58BBAE"/>
<path d="M844.011 454.161C791.306 482.847 738.595 511.532 685.878 540.214C683.117 541.723 680.105 543.506 679.15 546.511C677.864 550.538 680.847 554.578 683.63 557.766L772.105 659.195C776.23 663.968 782.667 669.135 788.094 665.972C791.374 664.03 792.469 659.879 793.256 656.163C807.593 587.643 829.003 529.501 843.312 460.947L844.011 454.161Z" fill="#F3ACC8"/>
<path d="M639.504 584.882L647.091 474.424C630.145 488.876 613.193 503.326 596.235 517.774C607.884 490.862 614.304 461.979 615.154 432.666C579.953 464.309 542.548 493.41 503.22 519.75C526.733 530.323 552.411 535.19 578.161 533.955L520.551 572.056C560.861 571.518 601.077 576.09 640.237 585.663" fill="#F3ACC8"/>
<path d="M455.379 373.082C463.55 359.803 472.183 345.88 474.342 330.187C476.289 316.374 472.759 300.438 461.32 291.482C450.819 283.227 436.475 283.004 424.192 286.902C408.082 292.021 395.643 304.248 383.339 315.265C360.61 335.771 333.615 350.98 304.3 359.795C274.984 368.61 244.078 370.812 213.809 366.242C206.233 365.049 198.788 363.179 191.209 361.996C184.256 360.915 176.978 360.297 170.09 361.962C163.807 363.406 158.289 367.141 154.612 372.436C151.251 377.363 149.917 383.361 149.71 389.239C149.228 403.289 154.337 417.117 158.67 430.248C164.402 447.623 171.049 464.903 180.798 480.439C196.065 504.793 220.751 525.771 250.507 527.593C281.245 529.476 308.695 510.974 331.681 492.728C354.92 474.282 379.406 457.216 401.305 437.149C411.941 427.397 421.84 416.872 430.922 405.66C437.645 397.374 443.859 388.715 450.195 380.118L455.287 373.254C455.991 372.306 454.661 371 453.948 371.963C441.747 388.412 429.886 405.15 415.869 420.144C396.987 440.331 374.996 457.009 353.091 473.745C340.766 483.188 328.801 493.194 316.112 502.151C303.798 510.828 290.486 518.56 275.928 522.75C261.903 526.786 247.156 526.979 233.239 522.376C219.733 517.909 207.729 509.54 197.847 499.408C186.184 487.453 177.658 472.856 170.953 457.643C167.295 449.344 164.172 440.822 161.291 432.224C158.79 424.793 156.262 417.319 154.296 409.723C151.364 398.345 149.134 384.348 155.894 373.846C164.296 360.785 181.163 361.962 194.509 364.405C201.683 365.718 208.781 367.371 216.011 368.406C223.139 369.425 230.317 370.062 237.514 370.315C281.728 371.746 325.271 359.218 361.964 334.507C368.025 330.385 373.853 325.93 379.422 321.163C386.062 315.475 392.357 309.401 399.094 303.833C410.667 294.262 424.129 286.256 439.629 286.25C446.207 286.155 452.669 287.984 458.222 291.51C464.344 295.548 468.58 301.875 470.808 308.801C475.642 323.661 471.664 339.047 464.969 352.608C461.64 359.356 457.695 365.777 453.767 372.171C453.114 373.191 454.748 374.097 455.379 373.082Z" fill="white"/>
<path d="M631.12 231.909C649.801 248.062 668.394 265.535 677.448 288.546C686.501 311.558 685.705 339.356 671.059 359.229C656.629 378.855 631.769 387.78 607.789 392.048C583.808 396.317 558.989 397.073 536.049 405.266C488.855 422.108 455.929 472.42 459.378 522.407C460.408 537.342 464.322 552.046 464.235 567.019C464.148 581.991 459.051 598.167 446.41 606.193C434.698 613.635 419.612 612.358 405.922 610.034C377.387 605.185 348.891 596.699 325.163 580.117C301.434 563.534 282.903 537.957 279.774 509.175C276.502 479.195 290.48 448.874 312.623 428.393C334.766 407.911 364.183 396.592 394.003 392.123C422.116 387.906 455.598 386.871 471.128 363.074C480.77 348.275 479.82 329.3 481.978 311.768C484.136 294.235 492.606 274.45 509.899 270.817C530.601 266.499 554.906 287.39 571.071 273.758C588.52 259.044 571.805 221.244 592.832 212.445C605.684 207.071 622.996 224.888 631.12 231.909Z" fill="#FDDC4E"/>
<path d="M756.125 269.288C749.954 257.7 742.676 246.465 733.176 237.306C724.542 228.983 714.057 222.466 701.996 220.781C691.402 219.324 679.907 221.203 671.202 227.709C662.857 233.925 658.732 243.449 657.135 253.492C655.488 263.751 655.987 274.241 654.559 284.555C653.955 289.668 652.592 294.662 650.515 299.373C647.661 305.265 643.606 310.495 638.611 314.728C627.833 324.132 614.218 329.115 600.953 333.907C587.688 338.698 574.143 343.699 562.893 352.522C553.263 359.931 546.359 370.323 543.261 382.073C540.456 393.11 540.718 404.703 544.019 415.602C551.433 440.15 573.206 457.975 597.139 465.398C609.251 469.049 621.891 470.641 634.53 470.109C648.008 469.734 661.344 467.247 674.051 462.739C686.826 458.076 698.744 450.824 707.633 440.412C716.054 430.547 721.557 418.663 725.906 406.526C728.118 400.371 729.981 394.112 732.007 387.899C733.967 381.79 736.906 376.039 740.709 370.871C746.807 362.643 755.003 356.161 760.628 347.504C767.481 336.931 770.516 323.757 770.051 311.23C769.671 300.484 766.44 290.126 761.857 280.434C760.07 276.648 758.079 272.958 756.091 269.274C755.433 268.035 753.559 269.145 754.217 270.384C758.554 278.534 762.817 286.702 765.337 295.632C768.639 307.253 768.68 319.559 765.456 331.201C763.887 337.01 761.37 342.519 758.004 347.505C755.162 351.67 751.68 355.352 748.227 358.984C744.691 362.579 741.407 366.413 738.397 370.459C734.913 375.356 732.173 380.742 730.265 386.441C728.194 392.52 726.443 398.697 724.292 404.755C722.195 410.799 719.708 416.701 716.847 422.423C710.854 434.251 702.534 444.512 691.368 451.808C679.923 459.287 666.685 463.641 653.288 465.971C640.956 468.186 628.367 468.594 615.918 467.181C591.015 464.206 566.705 451.9 553.088 430.232C541.052 411.063 539.725 385.037 552.885 366.019C560.576 354.907 572.621 347.714 584.789 342.424C598.175 336.598 612.435 332.888 625.427 326.139C636.29 320.499 646.563 312.365 652.067 301.18C656.568 292.008 657.292 281.646 657.822 271.61C658.338 261.793 658.504 251.458 662.495 242.292C666.738 232.555 675.178 226.03 685.455 223.631C696.206 221.185 707.481 222.753 717.156 228.04C728.422 234.238 737.386 243.859 744.617 254.346C748.141 259.517 751.368 264.884 754.281 270.422C754.964 271.604 756.835 270.488 756.125 269.288Z" fill="#58BBAE"/>
<path d="M522.919 430.25C511.591 435.922 501.435 443.681 492.982 453.118C484.461 462.561 477.676 473.437 472.94 485.242C468.198 496.985 465.692 509.512 465.553 522.176C465.433 537.649 469.065 552.773 470.514 568.102C471.768 581.335 471.391 595.433 465.552 607.634C464.856 609.081 464.087 610.499 463.243 611.887C462.514 613.079 464.416 614.138 465.152 612.943C472.132 601.459 473.752 587.663 473.144 574.452C472.453 559.291 468.862 544.421 467.931 529.283C467.169 516.411 468.911 503.513 473.062 491.305C477.129 479.352 483.309 468.226 491.308 458.456C499.26 448.674 508.986 440.478 519.974 434.297C521.311 433.548 522.676 432.832 524.047 432.155C525.305 431.529 524.189 429.658 522.937 430.281L522.919 430.25Z" fill="#FDDC4E"/>
</svg>
